<svg xmlns="http://www.w3.org/2000/svg" width="32" height="32"><path d="M15.992 2.986a.5.5 0 0 0-.492.508V5.56L13.299 4.08a.5.5 0 0 0-.281-.092v.002a.5.5 0 0 0-.278.92l2.76 1.854v2.79l-2.201-1.478a.5.5 0 0 0-.281-.092v.002a.5.5 0 0 0-.278.92l2.76 1.854v4.863l-4.213-2.434-.226-3.312a.5.5 0 0 0-.541-.473.5.5 0 0 0-.457.541l.181 2.64-2.418-1.394-.226-3.31a.5.5 0 0 0-.49-.473.5.5 0 0 0-.506.541l.18 2.639-1.792-1.033a.5.5 0 0 0-.289-.07.5.5 0 0 0-.21.935l1.796 1.037-2.387 1.17a.5.5 0 1 0 .44.898l2.992-1.464 2.414 1.394-2.387 1.168a.5.5 0 1 0 .442.898l2.988-1.464 4.219 2.435-4.215 2.434L7.8 17.459a.5.5 0 0 0-.24-.053v.002a.5.5 0 0 0-.2.951l2.389 1.17-2.418 1.395-2.99-1.465a.5.5 0 0 0-.242-.053v.002a.5.5 0 0 0-.198.951l2.385 1.168-1.795 1.037a.5.5 0 0 0 .5.868l1.791-1.034-.18 2.64a.5.5 0 1 0 .997.066l.226-3.31 2.418-1.394-.181 2.637a.5.5 0 1 0 .998.067l.224-3.307 4.215-2.432v4.858l-2.76 1.853a.5.5 0 0 0 .559.83l2.201-1.478v2.789l-2.76 1.853a.5.5 0 0 0 .559.83l2.201-1.478v2.072a.5.5 0 1 0 1 0v-2.072l2.201 1.478a.5.5 0 1 0 .557-.83L16.5 26.217v-2.79l2.201 1.48a.5.5 0 1 0 .557-.83L16.5 22.222v-4.87l4.213 2.432.226 3.32a.5.5 0 1 0 .998-.068l-.181-2.65 2.416 1.396.228 3.322a.5.5 0 1 0 .996-.066l-.18-2.654 1.792 1.035a.5.5 0 1 0 .5-.865l-1.785-1.032 2.375-1.164a.5.5 0 0 0-.213-.95.5.5 0 0 0-.227.052l-2.98 1.46-2.418-1.398 2.379-1.164a.5.5 0 0 0-.215-.95.5.5 0 0 0-.227.052l-2.98 1.46-4.207-2.429 4.21-2.43 2.977 1.46a.5.5 0 0 0 .442-.899l-2.375-1.164 2.412-1.393 2.982 1.46a.5.5 0 0 0 .44-.899l-2.375-1.164 1.785-1.031a.5.5 0 0 0-.229-.938v.002a.5.5 0 0 0-.271.068L25.217 10.6l.18-2.65a.5.5 0 0 0-.522-.542.5.5 0 0 0-.475.473l-.228 3.32-2.416 1.397.181-2.653a.5.5 0 0 0-.521-.54.5.5 0 0 0-.477.472l-.226 3.322-4.213 2.432V10.76l2.758-1.854a.5.5 0 1 0-.557-.83L16.5 9.555V6.764l2.758-1.854a.5.5 0 1 0-.557-.83L16.5 5.56V3.494a.5.5 0 0 0-.508-.508z" style="line-height:normal;text-indent:0;text-align:start;text-decoration-line:none;text-decoration-style:solid;text-decoration-color:#000;text-transform:none;block-progression:tb;white-space:normal;isolation:auto;mix-blend-mode:normal;solid-color:#000;solid-opacity:1" fill="#2b4255" fill-rule="evenodd" color="#000" enable-background="accumulate" font-family="sans-serif" font-weight="400" overflow="visible"/></svg>