<svg xmlns="http://www.w3.org/2000/svg" viewBox="0 0 24 24"><path fill="#303c42" d="M12 6.5a.5.5 0 0 0 .5-.5V5a.5.5 0 0 0-1 0v1a.5.5 0 0 0 .5.5zM7.93 6a.5.5 0 0 0-.87.5l.5.87a.5.5 0 0 0 .87-.5zM5.32 9.57l-.87-.5a.5.5 0 0 0-.5.87l.87.5a.5.5 0 0 0 .5-.87zM20 18.07l-.87-.5a.5.5 0 0 0-.5.87l.87.5a.5.5 0 1 0 .5-.87zM4.5 14a.5.5 0 0 0-.5-.5H3a.5.5 0 0 0 0 1h1a.5.5 0 0 0 .5-.5zm15 0a.5.5 0 0 0 .5.5h1a.5.5 0 0 0 0-1h-1a.5.5 0 0 0-.5.5zM4.82 17.57l-.87.5a.5.5 0 0 0 .5.87l.87-.5a.5.5 0 0 0-.5-.87zm14.72-8.5-.87.5a.5.5 0 0 0 .5.87l.87-.5a.5.5 0 1 0-.5-.87zm-2.79-3.3a.5.5 0 0 0-.68.18l-.5.87a.5.5 0 0 0 .87.5l.5-.87a.5.5 0 0 0-.19-.68zM12.5 8.46a.5.5 0 0 0-1 0l-.89 10.11A2 2 0 0 0 10 20a2 2 0 0 0 4 0 2 2 0 0 0-.61-1.44z"/><path fill="#303c42" d="M12 2A12 12 0 0 0 1.46 19.74a.5.5 0 0 0 .3.24.51.51 0 0 0 .38 0l.86-.52a.5.5 0 0 0 .2-.68 10 10 0 1 1 17.57 0 .5.5 0 0 0 .2.68l.88.48a.5.5 0 0 0 .24.06h.14a.5.5 0 0 0 .3-.24A12 12 0 0 0 12 2Z"/></svg>