<svg xmlns="http://www.w3.org/2000/svg" viewBox="0 0 24 24"><g data-name="&lt;Group&gt;"><path fill="none" stroke="#303c42" stroke-linecap="round" stroke-linejoin="round" d="M13.5 8c0-2.44 1.76-5.53 3.95-5.53a2 2 0 0 1 1.42.63 2 2 0 0 1 .63 1.42c0 2.22-3.09 3.98-5.5 3.98a.47.47 0 0 1-.5-.5zm2-1.5a12.05 12.05 0 0 1 5-5" data-name="&lt;Path&gt;"/></g><path fill="none" stroke="#303c42" stroke-linecap="round" stroke-linejoin="round" d="M1.5 15.5s3-4 10-4m6-1s.5-1 2.5-1a2.33 2.33 0 0 1 2.5 2.5c0 1-1 3.5-5 3.5s-5-1-7.5-1-7 2-8.5 5"/><path fill="none" stroke="#303c42" stroke-linecap="round" stroke-linejoin="round" d="M5.5 20.5s1-3 6-3 7 1.5 7 3a1.83 1.83 0 0 1-2 2 3.49 3.49 0 0 1-2-1"/></svg>